<?xml version="1.0" encoding="UTF-8" standalone="no"?>
<!-- Created with Inkscape (http://www.inkscape.org/) -->

<svg
   xmlns:dc="http://purl.org/dc/elements/1.1/"
   xmlns:cc="http://creativecommons.org/ns#"
   xmlns:rdf="http://www.w3.org/1999/02/22-rdf-syntax-ns#"
   xmlns:svg="http://www.w3.org/2000/svg"
   xmlns="http://www.w3.org/2000/svg"
   xmlns:sodipodi="http://sodipodi.sourceforge.net/DTD/sodipodi-0.dtd"
   xmlns:inkscape="http://www.inkscape.org/namespaces/inkscape"
   width="210mm"
   height="297mm"
   viewBox="0 0 210 297"
   version="1.1"
   id="svg49292"
   inkscape:version="0.92.3 (2405546, 2018-03-11)"
   sodipodi:docname="panel3.svg">
  <sodipodi:namedview
     id="base"
     pagecolor="#ffffff"
     bordercolor="#666666"
     borderopacity="1.0"
     inkscape:pageopacity="0.0"
     inkscape:pageshadow="2"
     inkscape:zoom="1.979899"
     inkscape:cx="-210.0952"
     inkscape:cy="941.37771"
     inkscape:document-units="mm"
     inkscape:current-layer="layer1"
     showgrid="true"
     inkscape:window-width="1920"
     inkscape:window-height="1015"
     inkscape:window-x="1680"
     inkscape:window-y="0"
     inkscape:window-maximized="1">
    <inkscape:grid
       id="grid54136"
       type="xygrid" />
  </sodipodi:namedview>
  <defs
     id="defs49286" />
  <metadata
     id="metadata49289">
    <rdf:RDF>
      <cc:Work
         rdf:about="">
        <dc:format>image/svg+xml</dc:format>
        <dc:type
           rdf:resource="http://purl.org/dc/dcmitype/StillImage" />
        <dc:title />
      </cc:Work>
    </rdf:RDF>
  </metadata>
  <g
     inkscape:label="Calque 1"
     inkscape:groupmode="layer"
     id="layer1">
    <path
       style="display:inline;fill:none;stroke:#000000;stroke-width:0.26458332px;stroke-linecap:butt;stroke-linejoin:miter;stroke-opacity:1"
       d="m -72.403525,56.220148 -0.0088,-4.519145 h 2.155027"
       id="path7727"
       inkscape:connector-curvature="0" />
    <path
       style="display:inline;fill:none;stroke:#000000;stroke-width:0.26458332px;stroke-linecap:butt;stroke-linejoin:miter;stroke-opacity:1"
       d="m -45.858785,56.220148 0.0088,-4.519145 h -2.155026"
       id="path7727-0"
       inkscape:connector-curvature="0" />
    <path
       style="display:inline;fill:none;stroke:#000000;stroke-width:0.29999998;stroke-linecap:butt;stroke-linejoin:miter;stroke-miterlimit:4;stroke-dasharray:none;stroke-opacity:1"
       d="m -44.066791,46.80927 h -30.020605 c -0.06796,4.901124 -0.757262,9.434083 -9.76461,9.037805 v 81.656045 c 5.754006,-0.007 10.662427,0.99984 9.76461,8.97459 H 5.799005 c -0.046,-9.39811 5.383691,-8.23599 9.827828,-8.97459 V 55.878668 C 8.644363,56.727039 5.642308,53.40544 5.735836,46.840863 h -29.894218"
       id="path8634"
       inkscape:connector-curvature="0"
       sodipodi:nodetypes="cccccccccc" />
    <path
       style="fill:none;stroke:#000000;stroke-width:0.26458335px;stroke-linecap:butt;stroke-linejoin:miter;stroke-opacity:1"
       d="m -72.403516,86.317609 -0.0088,-4.519146 h 2.155027"
       id="path7727-7"
       inkscape:connector-curvature="0" />
    <path
       style="fill:none;stroke:#000000;stroke-width:0.26458335px;stroke-linecap:butt;stroke-linejoin:miter;stroke-opacity:1"
       d="m -45.858776,86.317609 0.0088,-4.519146 h -2.155026"
       id="path7727-0-5"
       inkscape:connector-curvature="0" />
    <path
       style="fill:none;stroke:#000000;stroke-width:0.26458335px;stroke-linecap:butt;stroke-linejoin:miter;stroke-opacity:1"
       d="m -72.388328,118.16972 -0.02388,-4.51915 h 5.823812"
       id="path7727-7-1"
       inkscape:connector-curvature="0" />
    <path
       style="fill:none;stroke:#000000;stroke-width:0.26458335px;stroke-linecap:butt;stroke-linejoin:miter;stroke-opacity:1"
       d="m -45.874739,118.16972 0.02492,-4.51915 h -6.063731"
       id="path7727-0-5-5"
       inkscape:connector-curvature="0" />
    <path
       style="fill:none;stroke:#000000;stroke-width:0.26458338px;stroke-linecap:butt;stroke-linejoin:miter;stroke-opacity:1"
       d="m -39.693662,118.1697 -0.01518,-4.51914 h 3.708015"
       id="path7727-7-6"
       inkscape:connector-curvature="0" />
    <path
       style="fill:none;stroke:#000000;stroke-width:0.26458338px;stroke-linecap:butt;stroke-linejoin:miter;stroke-opacity:1"
       d="m -13.201022,118.1697 0.01474,-4.51914 h -3.46531"
       id="path7727-0-5-9"
       inkscape:connector-curvature="0" />
    <path
       d="m -85.613983,150.33773 h 0.02624"
       id="path7461"
       inkscape:connector-curvature="0"
       style="display:inline;fill:none;stroke:#000000;stroke-width:0.10000682;stroke-linecap:butt;stroke-linejoin:round;stroke-miterlimit:4;stroke-dasharray:none;stroke-opacity:1" />
    <path
       d="m -85.58898,42.682746 h -0.02624 v 0 0.0074"
       id="path7465"
       inkscape:connector-curvature="0"
       style="display:inline;fill:none;stroke:#000000;stroke-width:0.10000682;stroke-linecap:butt;stroke-linejoin:round;stroke-miterlimit:4;stroke-dasharray:none;stroke-opacity:1" />
    <path
       d="m -85.58898,150.34078 h -0.02624"
       id="path8215"
       inkscape:connector-curvature="0"
       style="display:inline;fill:none;stroke:#000000;stroke-width:0.10000682;stroke-linecap:butt;stroke-linejoin:round;stroke-miterlimit:4;stroke-dasharray:none;stroke-opacity:1" />
    <circle
       r="2.9492819"
       cy="64.885551"
       cx="-67.567955"
       id="circle8269"
       style="display:inline;fill:none;stroke:#000000;stroke-width:0.29999998;stroke-miterlimit:4;stroke-dasharray:none;stroke-dashoffset:0;stroke-opacity:1" />
    <circle
       r="2.9492819"
       cy="64.885551"
       cx="-50.900688"
       id="circle8271"
       style="display:inline;fill:none;stroke:#000000;stroke-width:0.29999998;stroke-miterlimit:4;stroke-dasharray:none;stroke-dashoffset:0;stroke-opacity:1" />
    <circle
       r="2.9492819"
       cy="64.885551"
       cx="-33.635048"
       id="circle8293"
       style="display:inline;fill:none;stroke:#000000;stroke-width:0.29999998;stroke-miterlimit:4;stroke-dasharray:none;stroke-dashoffset:0;stroke-opacity:1" />
    <circle
       r="2.9492819"
       cy="96.112099"
       cx="-67.567955"
       id="circle8305"
       style="display:inline;fill:none;stroke:#000000;stroke-width:0.29999998;stroke-miterlimit:4;stroke-dasharray:none;stroke-dashoffset:0;stroke-opacity:1" />
    <circle
       r="2.9492819"
       cy="96.112099"
       cx="-33.635048"
       id="circle8331"
       style="display:inline;fill:none;stroke:#000000;stroke-width:0.29999998;stroke-miterlimit:4;stroke-dasharray:none;stroke-dashoffset:0;stroke-opacity:1" />
    <circle
       r="2.9492819"
       cy="130.71901"
       cx="-67.567955"
       id="circle8347"
       style="display:inline;fill:none;stroke:#000000;stroke-width:0.29999998;stroke-miterlimit:4;stroke-dasharray:none;stroke-dashoffset:0;stroke-opacity:1" />
    <circle
       r="2.9492819"
       cy="130.85799"
       cx="-33.635048"
       id="circle8373"
       style="display:inline;fill:none;stroke:#000000;stroke-width:0.29999998;stroke-miterlimit:4;stroke-dasharray:none;stroke-dashoffset:0;stroke-opacity:1" />
    <circle
       r="2.9492819"
       cy="130.71901"
       cx="-0.90069097"
       id="circle8399"
       style="display:inline;fill:none;stroke:#000000;stroke-width:0.29999998;stroke-miterlimit:4;stroke-dasharray:none;stroke-dashoffset:0;stroke-opacity:1" />
    <circle
       r="2.9492819"
       cy="96.112099"
       cx="3.2839708"
       id="circle8411"
       style="display:inline;fill:none;stroke:#000000;stroke-width:0.29999998;stroke-miterlimit:4;stroke-dasharray:none;stroke-dashoffset:0;stroke-opacity:1" />
    <circle
       r="2.9492819"
       cy="96.112099"
       cx="-50.900688"
       id="circle8317"
       style="display:inline;fill:none;stroke:#000000;stroke-width:0.29999998;stroke-miterlimit:4;stroke-dasharray:none;stroke-dashoffset:0;stroke-opacity:1" />
    <circle
       r="2.9492819"
       cy="130.71901"
       cx="-50.900688"
       id="circle8359"
       style="display:inline;fill:none;stroke:#000000;stroke-width:0.29999998;stroke-miterlimit:4;stroke-dasharray:none;stroke-dashoffset:0;stroke-opacity:1" />
    <circle
       r="2.9492819"
       cy="130.71901"
       cx="-18.654924"
       id="circle8385"
       style="display:inline;fill:none;stroke:#000000;stroke-width:0.29999998;stroke-miterlimit:4;stroke-dasharray:none;stroke-dashoffset:0;stroke-opacity:1" />
    <rect
       style="display:inline;opacity:1;fill:none;fill-opacity:1;stroke:#000000;stroke-width:0.29999998;stroke-miterlimit:4;stroke-dasharray:none;stroke-dashoffset:0;stroke-opacity:0.92574259"
       id="rect8638"
       width="103.27092"
       height="106.55737"
       x="-85.65332"
       y="42.637981" />
    <g
       inkscape:label="Hershey Text"
       transform="matrix(0.10909091,0,0,0.10909091,-70.813375,139.84995)"
       id="g7558-9-4-2">
      <path
         inkscape:connector-curvature="0"
         d="m -2,-12 -2,1 -2,2 -1,2 -1,3 v 5 l 1,3 1,2 2,2 2,1 H 2 L 4,8 6,6 7,4 8,1 V -4 L 7,-7 6,-9 4,-11 2,-12 h -4"
         style="fill:none;stroke:#000000"
         transform="translate(11)"
         id="path7552-3-7-72" />
      <path
         inkscape:connector-curvature="0"
         d="M -6,-12 V 9 m 0,-21 H 7 M -6,-2 h 8"
         style="fill:none;stroke:#000000"
         transform="translate(32)"
         id="path7554-1-8-2" />
      <path
         inkscape:connector-curvature="0"
         d="M -6,-12 V 9 m 0,-21 H 7 M -6,-2 h 8"
         style="fill:none;stroke:#000000"
         transform="translate(50)"
         id="path7556-9-4-61" />
    </g>
    <g
       inkscape:label="Hershey Text"
       transform="matrix(0.10909091,0,0,0.10909091,-54.146112,139.84995)"
       id="g7558-9-4-2-2">
      <path
         inkscape:connector-curvature="0"
         d="m -2,-12 -2,1 -2,2 -1,2 -1,3 v 5 l 1,3 1,2 2,2 2,1 H 2 L 4,8 6,6 7,4 8,1 V -4 L 7,-7 6,-9 4,-11 2,-12 h -4"
         style="fill:none;stroke:#000000"
         transform="translate(11)"
         id="path7552-3-7-72-4" />
      <path
         inkscape:connector-curvature="0"
         d="M -6,-12 V 9 m 0,-21 H 7 M -6,-2 h 8"
         style="fill:none;stroke:#000000"
         transform="translate(32)"
         id="path7554-1-8-2-7" />
      <path
         inkscape:connector-curvature="0"
         d="M -6,-12 V 9 m 0,-21 H 7 M -6,-2 h 8"
         style="fill:none;stroke:#000000"
         transform="translate(50)"
         id="path7556-9-4-61-7" />
    </g>
    <g
       inkscape:label="Hershey Text"
       transform="matrix(0.10909091,0,0,0.10909091,-36.880471,139.84995)"
       id="g7558-9-4-2-5">
      <path
         inkscape:connector-curvature="0"
         d="m -2,-12 -2,1 -2,2 -1,2 -1,3 v 5 l 1,3 1,2 2,2 2,1 H 2 L 4,8 6,6 7,4 8,1 V -4 L 7,-7 6,-9 4,-11 2,-12 h -4"
         style="fill:none;stroke:#000000"
         transform="translate(11)"
         id="path7552-3-7-72-48" />
      <path
         inkscape:connector-curvature="0"
         d="M -6,-12 V 9 m 0,-21 H 7 M -6,-2 h 8"
         style="fill:none;stroke:#000000"
         transform="translate(32)"
         id="path7554-1-8-2-1" />
      <path
         inkscape:connector-curvature="0"
         d="M -6,-12 V 9 m 0,-21 H 7 M -6,-2 h 8"
         style="fill:none;stroke:#000000"
         transform="translate(50)"
         id="path7556-9-4-61-2" />
    </g>
    <g
       inkscape:label="Hershey Text"
       transform="matrix(0.10909091,0,0,0.10909091,-21.900344,139.84995)"
       id="g7558-9-4-2-8">
      <path
         inkscape:connector-curvature="0"
         d="m -2,-12 -2,1 -2,2 -1,2 -1,3 v 5 l 1,3 1,2 2,2 2,1 H 2 L 4,8 6,6 7,4 8,1 V -4 L 7,-7 6,-9 4,-11 2,-12 h -4"
         style="fill:none;stroke:#000000"
         transform="translate(11)"
         id="path7552-3-7-72-9" />
      <path
         inkscape:connector-curvature="0"
         d="M -6,-12 V 9 m 0,-21 H 7 M -6,-2 h 8"
         style="fill:none;stroke:#000000"
         transform="translate(32)"
         id="path7554-1-8-2-3" />
      <path
         inkscape:connector-curvature="0"
         d="M -6,-12 V 9 m 0,-21 H 7 M -6,-2 h 8"
         style="fill:none;stroke:#000000"
         transform="translate(50)"
         id="path7556-9-4-61-6" />
    </g>
    <g
       inkscape:label="Hershey Text"
       transform="matrix(0.10909091,0,0,0.10909091,-4.1461106,139.84995)"
       id="g7558-9-4-2-80">
      <path
         inkscape:connector-curvature="0"
         d="m -2,-12 -2,1 -2,2 -1,2 -1,3 v 5 l 1,3 1,2 2,2 2,1 H 2 L 4,8 6,6 7,4 8,1 V -4 L 7,-7 6,-9 4,-11 2,-12 h -4"
         style="fill:none;stroke:#000000"
         transform="translate(11)"
         id="path7552-3-7-72-2" />
      <path
         inkscape:connector-curvature="0"
         d="M -6,-12 V 9 m 0,-21 H 7 M -6,-2 h 8"
         style="fill:none;stroke:#000000"
         transform="translate(32)"
         id="path7554-1-8-2-10" />
      <path
         inkscape:connector-curvature="0"
         d="M -6,-12 V 9 m 0,-21 H 7 M -6,-2 h 8"
         style="fill:none;stroke:#000000"
         transform="translate(50)"
         id="path7556-9-4-61-5" />
    </g>
    <g
       inkscape:label="Hershey Text"
       transform="matrix(0.09509145,0,0,0.09509145,-69.422231,121.7757)"
       id="g17281-9-0-1">
      <path
         inkscape:connector-curvature="0"
         d="M -6,-12 V 9 m 0,0 H 6"
         style="fill:none;stroke:#000000"
         transform="translate(10)"
         id="path17277-1-6-1" />
      <path
         inkscape:connector-curvature="0"
         d="M -7,-12 V 9 M 7,-12 V 9 M -7,-2 H 7"
         style="fill:none;stroke:#000000"
         transform="translate(28)"
         id="path17279-27-1-0" />
    </g>
    <g
       id="g17900-6-5-8"
       transform="matrix(0.11025137,0,0,0.11025137,-53.271132,121.83497)"
       inkscape:label="Hershey Text">
      <path
         id="path17896-0-9-5"
         transform="translate(11)"
         style="fill:none;stroke:#000000"
         d="M -7,-12 V 9 m 0,-21 h 9 l 3,1 1,1 1,2 v 2 l -1,2 -1,1 -3,1 h -9 m 7,0 7,11"
         inkscape:connector-curvature="0" />
      <path
         id="path17898-6-4-0"
         transform="translate(32)"
         style="fill:none;stroke:#000000"
         d="M -7,-12 V 9 M 7,-12 V 9 M -7,-2 H 7"
         inkscape:connector-curvature="0" />
    </g>
    <g
       inkscape:label="Hershey Text"
       transform="matrix(0.09509145,0,0,0.09509145,-35.489331,121.77569)"
       id="g17281-9-0-1-6">
      <path
         inkscape:connector-curvature="0"
         d="M -6,-12 V 9 m 0,0 H 6"
         style="fill:none;stroke:#000000"
         transform="translate(10)"
         id="path17277-1-6-1-4" />
      <path
         inkscape:connector-curvature="0"
         d="M -7,-12 V 9 M 7,-12 V 9 M -7,-2 H 7"
         style="fill:none;stroke:#000000"
         transform="translate(28)"
         id="path17279-27-1-0-6" />
    </g>
    <g
       id="g17900-6-5-8-2"
       transform="matrix(0.11025137,0,0,0.11025137,-21.025372,121.83497)"
       inkscape:label="Hershey Text">
      <path
         id="path17896-0-9-5-5"
         transform="translate(11)"
         style="fill:none;stroke:#000000"
         d="M -7,-12 V 9 m 0,-21 h 9 l 3,1 1,1 1,2 v 2 l -1,2 -1,1 -3,1 h -9 m 7,0 7,11"
         inkscape:connector-curvature="0" />
      <path
         id="path17898-6-4-0-8"
         transform="translate(32)"
         style="fill:none;stroke:#000000"
         d="M -7,-12 V 9 M 7,-12 V 9 M -7,-2 H 7"
         inkscape:connector-curvature="0" />
    </g>
    <g
       inkscape:label="Hershey Text"
       transform="matrix(0.10909091,0,0,0.10909091,-54.146112,105.07611)"
       id="g7558-9-4-2-5-6">
      <path
         inkscape:connector-curvature="0"
         d="m -2,-12 -2,1 -2,2 -1,2 -1,3 v 5 l 1,3 1,2 2,2 2,1 H 2 L 4,8 6,6 7,4 8,1 V -4 L 7,-7 6,-9 4,-11 2,-12 h -4"
         style="fill:none;stroke:#000000"
         transform="translate(11)"
         id="path7552-3-7-72-48-2" />
      <path
         inkscape:connector-curvature="0"
         d="M -6,-12 V 9 m 0,-21 H 7 M -6,-2 h 8"
         style="fill:none;stroke:#000000"
         transform="translate(32)"
         id="path7554-1-8-2-1-8" />
      <path
         inkscape:connector-curvature="0"
         d="M -6,-12 V 9 m 0,-21 H 7 M -6,-2 h 8"
         style="fill:none;stroke:#000000"
         transform="translate(50)"
         id="path7556-9-4-61-2-4" />
    </g>
    <g
       inkscape:label="Hershey Text"
       transform="matrix(0.10909091,0,0,0.10909091,-70.813375,105.07611)"
       id="g7558-9-4-2-5-7">
      <path
         inkscape:connector-curvature="0"
         d="m -2,-12 -2,1 -2,2 -1,2 -1,3 v 5 l 1,3 1,2 2,2 2,1 H 2 L 4,8 6,6 7,4 8,1 V -4 L 7,-7 6,-9 4,-11 2,-12 h -4"
         style="fill:none;stroke:#000000"
         transform="translate(11)"
         id="path7552-3-7-72-48-24" />
      <path
         inkscape:connector-curvature="0"
         d="M -6,-12 V 9 m 0,-21 H 7 M -6,-2 h 8"
         style="fill:none;stroke:#000000"
         transform="translate(32)"
         id="path7554-1-8-2-1-0" />
      <path
         inkscape:connector-curvature="0"
         d="M -6,-12 V 9 m 0,-21 H 7 M -6,-2 h 8"
         style="fill:none;stroke:#000000"
         transform="translate(50)"
         id="path7556-9-4-61-2-6" />
    </g>
    <g
       inkscape:label="Hershey Text"
       transform="matrix(0.10909091,0,0,0.10909091,-36.880471,105.07611)"
       id="g7558-9-4-2-5-2">
      <path
         inkscape:connector-curvature="0"
         d="m -2,-12 -2,1 -2,2 -1,2 -1,3 v 5 l 1,3 1,2 2,2 2,1 H 2 L 4,8 6,6 7,4 8,1 V -4 L 7,-7 6,-9 4,-11 2,-12 h -4"
         style="fill:none;stroke:#000000"
         transform="translate(11)"
         id="path7552-3-7-72-48-9" />
      <path
         inkscape:connector-curvature="0"
         d="M -6,-12 V 9 m 0,-21 H 7 M -6,-2 h 8"
         style="fill:none;stroke:#000000"
         transform="translate(32)"
         id="path7554-1-8-2-1-9" />
      <path
         inkscape:connector-curvature="0"
         d="M -6,-12 V 9 m 0,-21 H 7 M -6,-2 h 8"
         style="fill:none;stroke:#000000"
         transform="translate(50)"
         id="path7556-9-4-61-2-0" />
    </g>
    <g
       inkscape:label="Hershey Text"
       transform="matrix(0.10909091,0,0,0.10909091,-36.880502,73.779706)"
       id="g7558-9-4-2-5-8">
      <path
         inkscape:connector-curvature="0"
         d="m -2,-12 -2,1 -2,2 -1,2 -1,3 v 5 l 1,3 1,2 2,2 2,1 H 2 L 4,8 6,6 7,4 8,1 V -4 L 7,-7 6,-9 4,-11 2,-12 h -4"
         style="fill:none;stroke:#000000"
         transform="translate(11)"
         id="path7552-3-7-72-48-1" />
      <path
         inkscape:connector-curvature="0"
         d="M -6,-12 V 9 m 0,-21 H 7 M -6,-2 h 8"
         style="fill:none;stroke:#000000"
         transform="translate(32)"
         id="path7554-1-8-2-1-3" />
      <path
         inkscape:connector-curvature="0"
         d="M -6,-12 V 9 m 0,-21 H 7 M -6,-2 h 8"
         style="fill:none;stroke:#000000"
         transform="translate(50)"
         id="path7556-9-4-61-2-1" />
    </g>
    <g
       inkscape:label="Hershey Text"
       transform="matrix(0.10909091,0,0,0.10909091,-70.81341,73.779706)"
       id="g7558-9-4-2-5-1">
      <path
         inkscape:connector-curvature="0"
         d="m -2,-12 -2,1 -2,2 -1,2 -1,3 v 5 l 1,3 1,2 2,2 2,1 H 2 L 4,8 6,6 7,4 8,1 V -4 L 7,-7 6,-9 4,-11 2,-12 h -4"
         style="fill:none;stroke:#000000"
         transform="translate(11)"
         id="path7552-3-7-72-48-0" />
      <path
         inkscape:connector-curvature="0"
         d="M -6,-12 V 9 m 0,-21 H 7 M -6,-2 h 8"
         style="fill:none;stroke:#000000"
         transform="translate(32)"
         id="path7554-1-8-2-1-34" />
      <path
         inkscape:connector-curvature="0"
         d="M -6,-12 V 9 m 0,-21 H 7 M -6,-2 h 8"
         style="fill:none;stroke:#000000"
         transform="translate(50)"
         id="path7556-9-4-61-2-03" />
    </g>
    <g
       inkscape:label="Hershey Text"
       transform="matrix(0.10909091,0,0,0.10909091,-54.146143,73.779706)"
       id="g7558-9-4-2-5-9">
      <path
         inkscape:connector-curvature="0"
         d="m -2,-12 -2,1 -2,2 -1,2 -1,3 v 5 l 1,3 1,2 2,2 2,1 H 2 L 4,8 6,6 7,4 8,1 V -4 L 7,-7 6,-9 4,-11 2,-12 h -4"
         style="fill:none;stroke:#000000"
         transform="translate(11)"
         id="path7552-3-7-72-48-19" />
      <path
         inkscape:connector-curvature="0"
         d="M -6,-12 V 9 m 0,-21 H 7 M -6,-2 h 8"
         style="fill:none;stroke:#000000"
         transform="translate(32)"
         id="path7554-1-8-2-1-6" />
      <path
         inkscape:connector-curvature="0"
         d="M -6,-12 V 9 m 0,-21 H 7 M -6,-2 h 8"
         style="fill:none;stroke:#000000"
         transform="translate(50)"
         id="path7556-9-4-61-2-9" />
    </g>
    <g
       inkscape:label="Hershey Text"
       transform="matrix(0.09509145,0,0,0.09509145,-69.648292,87.455461)"
       id="g17281-9-0-1-3">
      <path
         inkscape:connector-curvature="0"
         d="M -6,-12 V 9 m 0,0 H 6"
         style="fill:none;stroke:#000000"
         transform="translate(10)"
         id="path17277-1-6-1-3" />
      <path
         inkscape:connector-curvature="0"
         d="M -7,-12 V 9 M 7,-12 V 9 M -7,-2 H 7"
         style="fill:none;stroke:#000000"
         transform="translate(28)"
         id="path17279-27-1-0-8" />
    </g>
    <g
       id="g17900-6-5-8-0"
       transform="matrix(0.11025137,0,0,0.11025137,-53.497192,87.514741)"
       inkscape:label="Hershey Text">
      <path
         id="path17896-0-9-5-56"
         transform="translate(11)"
         style="fill:none;stroke:#000000"
         d="M -7,-12 V 9 m 0,-21 h 9 l 3,1 1,1 1,2 v 2 l -1,2 -1,1 -3,1 h -9 m 7,0 7,11"
         inkscape:connector-curvature="0" />
      <path
         id="path17898-6-4-0-6"
         transform="translate(32)"
         style="fill:none;stroke:#000000"
         d="M -7,-12 V 9 M 7,-12 V 9 M -7,-2 H 7"
         inkscape:connector-curvature="0" />
    </g>
    <g
       inkscape:label="Hershey Text"
       transform="matrix(0.10909091,0,0,0.10909091,-68.626639,81.75389)"
       id="g50793">
      <path
         inkscape:connector-curvature="0"
         d="M -10,-12 -5,9 M 0,-12 -5,9 M 0,-12 5,9 M 10,-12 5,9"
         style="fill:none;stroke:#000000"
         transform="translate(12)"
         id="path50773" />
      <path
         inkscape:connector-curvature="0"
         d="M 0,-12 V 9"
         style="fill:none;stroke:#000000"
         transform="translate(28)"
         id="path50775" />
      <path
         inkscape:connector-curvature="0"
         d="M -7,-12 V 9 M -7,-12 7,9 M 7,-12 V 9"
         style="fill:none;stroke:#000000"
         transform="translate(43)"
         id="path50777" />
      <path
         inkscape:connector-curvature="0"
         d="M -7,-12 V 9 m 0,-21 h 7 l 3,1 2,2 1,2 1,3 V 1 L 6,4 5,6 3,8 0,9 h -7"
         style="fill:none;stroke:#000000"
         transform="translate(65)"
         id="path50779" />
      <path
         inkscape:connector-curvature="0"
         d="m 7,-9 -2,-2 -3,-1 h -4 l -3,1 -2,2 v 2 l 1,2 1,1 2,1 6,2 2,1 1,1 1,2 V 6 L 5,8 2,9 H -2 L -5,8 -7,6"
         style="fill:none;stroke:#000000"
         transform="translate(85)"
         id="path50781" />
      <path
         inkscape:connector-curvature="0"
         d="M -7,-12 V 9 M 7,-12 V 9 M -7,-2 H 7"
         style="fill:none;stroke:#000000"
         transform="translate(106)"
         id="path50783" />
      <path
         inkscape:connector-curvature="0"
         d="M 0,-12 V 9"
         style="fill:none;stroke:#000000"
         transform="translate(121)"
         id="path50785" />
      <path
         inkscape:connector-curvature="0"
         d="M -6,-12 V 9 m 0,-21 H 7 M -6,-2 H 2 M -6,9 H 7"
         style="fill:none;stroke:#000000"
         transform="translate(135)"
         id="path50787" />
      <path
         inkscape:connector-curvature="0"
         d="M -6,-12 V 9 m 0,0 H 6"
         style="fill:none;stroke:#000000"
         transform="translate(154)"
         id="path50789" />
      <path
         inkscape:connector-curvature="0"
         d="M -7,-12 V 9 m 0,-21 h 7 l 3,1 2,2 1,2 1,3 V 1 L 6,4 5,6 3,8 0,9 h -7"
         style="fill:none;stroke:#000000"
         transform="translate(172)"
         id="path50791" />
    </g>
    <g
       id="g51070"
       transform="matrix(0.10909091,0,0,0.10909091,-1.5705929,104.85805)"
       inkscape:label="Hershey Text">
      <path
         id="path51062"
         transform="translate(11)"
         style="fill:none;stroke:#000000"
         d="M -7,-12 V 9 M -7,-12 7,9 M 7,-12 V 9"
         inkscape:connector-curvature="0" />
      <path
         id="path51064"
         transform="translate(33)"
         style="fill:none;stroke:#000000"
         d="m -2,-12 -2,1 -2,2 -1,2 -1,3 v 5 l 1,3 1,2 2,2 2,1 H 2 L 4,8 6,6 7,4 8,1 V -4 L 7,-7 6,-9 4,-11 2,-12 h -4"
         inkscape:connector-curvature="0" />
      <path
         id="path51066"
         transform="translate(55)"
         style="fill:none;stroke:#000000"
         d="M -7,-12 V 9 m 0,-21 h 9 l 3,1 1,1 1,2 v 2 l -1,2 -1,1 -3,1 h -9 m 7,0 7,11"
         inkscape:connector-curvature="0" />
      <path
         id="path51068"
         transform="translate(77)"
         style="fill:none;stroke:#000000"
         d="M -8,-12 V 9 M -8,-12 0,9 M 8,-12 0,9 M 8,-12 V 9"
         inkscape:connector-curvature="0" />
    </g>
    <g
       id="g51779"
       transform="translate(29.104167,4.2522321)">
      <g
         id="g51342"
         transform="matrix(0.10909091,0,0,0.10909091,-30.051991,80.544666)"
         inkscape:label="Hershey Text">
        <path
           inkscape:connector-curvature="0"
           id="path51334"
           transform="translate(12)"
           style="fill:none;stroke:#000000"
           d="M -10,-12 -5,9 M 0,-12 -5,9 M 0,-12 5,9 M 10,-12 5,9" />
        <path
           inkscape:connector-curvature="0"
           id="path51336"
           transform="translate(28)"
           style="fill:none;stroke:#000000"
           d="M 0,-12 V 9" />
        <path
           inkscape:connector-curvature="0"
           id="path51338"
           transform="translate(43)"
           style="fill:none;stroke:#000000"
           d="M -7,-12 V 9 M -7,-12 7,9 M 7,-12 V 9" />
        <path
           inkscape:connector-curvature="0"
           id="path51340"
           transform="translate(64)"
           style="fill:none;stroke:#000000"
           d="M 8,-7 7,-9 5,-11 3,-12 h -4 l -2,1 -2,2 -1,2 -1,3 v 5 l 1,3 1,2 2,2 2,1 H 3 L 5,8 7,6 8,4 V 1 M 3,1 h 5" />
      </g>
      <g
         inkscape:label="Hershey Text"
         transform="matrix(0.10909091,0,0,0.10909091,-31.474012,83.455081)"
         id="g51624">
        <path
           inkscape:connector-curvature="0"
           d="M -7,-12 7,9 M 7,-12 -7,9"
           style="fill:none;stroke:#000000"
           transform="translate(10)"
           id="path51614" />
        <path
           inkscape:connector-curvature="0"
           d="m -2,-12 -2,1 -2,2 -1,2 -1,3 v 5 l 1,3 1,2 2,2 2,1 H 2 L 4,8 6,6 7,4 8,1 V -4 L 7,-7 6,-9 4,-11 2,-12 h -4"
           style="fill:none;stroke:#000000"
           transform="translate(31)"
           id="path51616" />
        <path
           inkscape:connector-curvature="0"
           d="M -8,-12 0,9 M 8,-12 0,9"
           style="fill:none;stroke:#000000"
           transform="translate(51)"
           id="path51618" />
        <path
           inkscape:connector-curvature="0"
           d="M -6,-12 V 9 m 0,-21 H 7 M -6,-2 H 2 M -6,9 H 7"
           style="fill:none;stroke:#000000"
           transform="translate(70)"
           id="path51620" />
        <path
           inkscape:connector-curvature="0"
           d="M -7,-12 V 9 m 0,-21 h 9 l 3,1 1,1 1,2 v 2 l -1,2 -1,1 -3,1 h -9 m 7,0 7,11"
           style="fill:none;stroke:#000000"
           transform="translate(90)"
           id="path51622" />
      </g>
    </g>
    <g
       inkscape:label="Hershey Text"
       transform="matrix(0.10909091,0,0,0.10909091,-65.267432,113.63205)"
       id="g51931">
      <path
         inkscape:connector-curvature="0"
         d="M -6,-12 V 9 m 0,-21 H 7 M -6,-2 H 2 M -6,9 H 7"
         style="fill:none;stroke:#000000"
         transform="translate(10)"
         id="path51919" />
      <path
         inkscape:connector-curvature="0"
         d="M -7,-12 V 9 M -7,-12 7,9 M 7,-12 V 9"
         style="fill:none;stroke:#000000"
         transform="translate(30)"
         id="path51921" />
      <path
         inkscape:connector-curvature="0"
         d="M 8,-7 7,-9 5,-11 3,-12 h -4 l -2,1 -2,2 -1,2 -1,3 v 5 l 1,3 1,2 2,2 2,1 H 3 L 5,8 7,6 8,4 V 1 M 3,1 h 5"
         style="fill:none;stroke:#000000"
         transform="translate(51)"
         id="path51923" />
      <path
         inkscape:connector-curvature="0"
         d="M 0,-12 V 9"
         style="fill:none;stroke:#000000"
         transform="translate(66)"
         id="path51925" />
      <path
         inkscape:connector-curvature="0"
         d="M -7,-12 V 9 M -7,-12 7,9 M 7,-12 V 9"
         style="fill:none;stroke:#000000"
         transform="translate(81)"
         id="path51927" />
      <path
         inkscape:connector-curvature="0"
         d="M -6,-12 V 9 m 0,-21 H 7 M -6,-2 H 2 M -6,9 H 7"
         style="fill:none;stroke:#000000"
         transform="translate(102)"
         id="path51929" />
    </g>
    <g
       id="g52249"
       transform="matrix(0.10909091,0,0,0.10909091,-34.991549,113.63205)"
       inkscape:label="Hershey Text">
      <path
         id="path52229"
         transform="translate(10)"
         style="fill:none;stroke:#000000"
         d="m 7,-9 -2,-2 -3,-1 h -4 l -3,1 -2,2 v 2 l 1,2 1,1 2,1 6,2 2,1 1,1 1,2 V 6 L 5,8 2,9 H -2 L -5,8 -7,6"
         inkscape:connector-curvature="0" />
      <path
         id="path52231"
         transform="translate(28)"
         style="fill:none;stroke:#000000"
         d="M 0,-12 V 9 M -7,-12 H 7"
         inkscape:connector-curvature="0" />
      <path
         id="path52233"
         transform="translate(45)"
         style="fill:none;stroke:#000000"
         d="M 0,-12 -8,9 M 0,-12 8,9 M -5,2 H 5"
         inkscape:connector-curvature="0" />
      <path
         id="path52235"
         transform="translate(65)"
         style="fill:none;stroke:#000000"
         d="M -7,-12 V 9 m 0,-21 h 9 l 3,1 1,1 1,2 v 2 l -1,2 -1,1 -3,1 m -9,0 h 9 l 3,1 1,1 1,2 V 5 L 6,7 5,8 2,9 h -9"
         inkscape:connector-curvature="0" />
      <path
         id="path52237"
         transform="translate(79)"
         style="fill:none;stroke:#000000"
         d="M 0,-12 V 9"
         inkscape:connector-curvature="0" />
      <path
         id="path52239"
         transform="translate(93)"
         style="fill:none;stroke:#000000"
         d="M -6,-12 V 9 m 0,0 H 6"
         inkscape:connector-curvature="0" />
      <path
         id="path52241"
         transform="translate(104)"
         style="fill:none;stroke:#000000"
         d="M 0,-12 V 9"
         inkscape:connector-curvature="0" />
      <path
         id="path52243"
         transform="translate(118)"
         style="fill:none;stroke:#000000"
         d="M 7,-12 -7,9 m 0,-21 H 7 M -7,9 H 7"
         inkscape:connector-curvature="0" />
      <path
         id="path52245"
         transform="translate(138)"
         style="fill:none;stroke:#000000"
         d="M -6,-12 V 9 m 0,-21 H 7 M -6,-2 H 2 M -6,9 H 7"
         inkscape:connector-curvature="0" />
      <path
         id="path52247"
         transform="translate(158)"
         style="fill:none;stroke:#000000"
         d="M -7,-12 V 9 m 0,-21 h 9 l 3,1 1,1 1,2 v 2 l -1,2 -1,1 -3,1 h -9 m 7,0 7,11"
         inkscape:connector-curvature="0" />
    </g>
    <g
       inkscape:label="Hershey Text"
       transform="matrix(0.10909091,0,0,0.10909091,-4.8552746,122.04909)"
       id="g52563">
      <path
         inkscape:connector-curvature="0"
         d="m 7,-9 -2,-2 -3,-1 h -4 l -3,1 -2,2 v 2 l 1,2 1,1 2,1 6,2 2,1 1,1 1,2 V 6 L 5,8 2,9 H -2 L -5,8 -7,6"
         style="fill:none;stroke:#000000"
         transform="translate(10)"
         id="path52555" />
      <path
         inkscape:connector-curvature="0"
         d="M -6,-12 V 9 m 0,0 H 6"
         style="fill:none;stroke:#000000"
         transform="translate(30)"
         id="path52557" />
      <path
         inkscape:connector-curvature="0"
         d="M 0,-12 -8,9 M 0,-12 8,9 M -5,2 H 5"
         style="fill:none;stroke:#000000"
         transform="translate(46)"
         id="path52559" />
      <path
         inkscape:connector-curvature="0"
         d="M 0,-12 V 9 M -7,-12 H 7"
         style="fill:none;stroke:#000000"
         transform="translate(63)"
         id="path52561" />
    </g>
    <g
       id="g52891"
       transform="matrix(0.10909091,0,0,0.10909091,-41.043946,46.313637)"
       inkscape:label="Hershey Text">
      <path
         id="path52875"
         transform="translate(9)"
         style="fill:none;stroke:#000000"
         d="M 0,-12 -8,9 M 0,-12 8,9 M -5,2 H 5"
         inkscape:connector-curvature="0" />
      <path
         id="path52877"
         transform="translate(29)"
         style="fill:none;stroke:#000000"
         d="M -7,-12 V 9 M -7,-12 7,9 M 7,-12 V 9"
         inkscape:connector-curvature="0" />
      <path
         id="path52879"
         transform="translate(48)"
         style="fill:none;stroke:#000000"
         d="M 0,-12 V 9 M -7,-12 H 7"
         inkscape:connector-curvature="0" />
      <path
         id="path52881"
         transform="translate(60)"
         style="fill:none;stroke:#000000"
         d="M 0,-12 V 9"
         inkscape:connector-curvature="0" />
      <path
         id="path52883"
         transform="translate(77)"
         style="fill:none;stroke:#000000"
         d="M -9,0 H 9"
         inkscape:connector-curvature="0" />
      <path
         id="path52885"
         transform="translate(94)"
         style="fill:none;stroke:#000000"
         d="M 0,-12 V 9"
         inkscape:connector-curvature="0" />
      <path
         id="path52887"
         transform="translate(108)"
         style="fill:none;stroke:#000000"
         d="M 8,-7 7,-9 5,-11 3,-12 h -4 l -2,1 -2,2 -1,2 -1,3 v 5 l 1,3 1,2 2,2 2,1 H 3 L 5,8 7,6 8,4"
         inkscape:connector-curvature="0" />
      <path
         id="path52889"
         transform="translate(129)"
         style="fill:none;stroke:#000000"
         d="M -6,-12 V 9 m 0,-21 H 7 M -6,-2 H 2 M -6,9 H 7"
         inkscape:connector-curvature="0" />
    </g>
    <g
       inkscape:label="Hershey Text"
       transform="matrix(0.10909091,0,0,0.10909091,-42.417559,51.807289)"
       id="g53235">
      <path
         inkscape:connector-curvature="0"
         d="M -10,-12 -5,9 M 0,-12 -5,9 M 0,-12 5,9 M 10,-12 5,9"
         style="fill:none;stroke:#000000"
         transform="translate(12)"
         id="path53217" />
      <path
         inkscape:connector-curvature="0"
         d="M 0,-12 V 9"
         style="fill:none;stroke:#000000"
         transform="translate(28)"
         id="path53219" />
      <path
         inkscape:connector-curvature="0"
         d="M -7,-12 V 9 M -7,-12 7,9 M 7,-12 V 9"
         style="fill:none;stroke:#000000"
         transform="translate(43)"
         id="path53221" />
      <path
         inkscape:connector-curvature="0"
         d="M 8,-7 7,-9 5,-11 3,-12 h -4 l -2,1 -2,2 -1,2 -1,3 v 5 l 1,3 1,2 2,2 2,1 H 3 L 5,8 7,6 8,4 V 1 M 3,1 h 5"
         style="fill:none;stroke:#000000"
         transform="translate(64)"
         id="path53223" />
      <path
         inkscape:connector-curvature="0"
         d=""
         style="fill:none;stroke:#000000"
         transform="translate(83)"
         id="path53225" />
      <path
         inkscape:connector-curvature="0"
         d="M 0,-12 V 9"
         style="fill:none;stroke:#000000"
         transform="translate(95)"
         id="path53227" />
      <path
         inkscape:connector-curvature="0"
         d="M -7,-12 V 9 M -7,-12 7,9 M 7,-12 V 9"
         style="fill:none;stroke:#000000"
         transform="translate(110)"
         id="path53229" />
      <path
         inkscape:connector-curvature="0"
         d="m 7,-9 -2,-2 -3,-1 h -4 l -3,1 -2,2 v 2 l 1,2 1,1 2,1 6,2 2,1 1,1 1,2 V 6 L 5,8 2,9 H -2 L -5,8 -7,6"
         style="fill:none;stroke:#000000"
         transform="translate(131)"
         id="path53231" />
      <path
         inkscape:connector-curvature="0"
         d="M -7,-12 V 9 m 0,-21 h 9 l 3,1 1,1 1,2 v 3 l -1,2 -1,1 -3,1 h -9"
         style="fill:none;stroke:#000000"
         transform="translate(152)"
         id="path53233" />
    </g>
    <g
       transform="translate(7.0346583,17.708185)"
       id="g54154">
      <g
         inkscape:label="Hershey Text"
         transform="matrix(0.10909091,0,0,0.10909091,-76.79678,34.080673)"
         id="g53587">
        <path
           d="M -7,-12 V 9 m 0,-21 h 9 l 3,1 1,1 1,2 v 3 l -1,2 -1,1 -3,1 h -9"
           style="fill:none;stroke:#000000"
           transform="translate(11)"
           id="path53577"
           inkscape:connector-curvature="0" />
        <path
           d="M 0,-12 V 9"
           style="fill:none;stroke:#000000"
           transform="translate(25)"
           id="path53579"
           inkscape:connector-curvature="0" />
        <path
           d="M 0,-12 V 9 M -7,-12 H 7"
           style="fill:none;stroke:#000000"
           transform="translate(37)"
           id="path53581"
           inkscape:connector-curvature="0" />
        <path
           d="m -2,-12 -2,1 -2,2 -1,2 -1,3 v 5 l 1,3 1,2 2,2 2,1 H 2 L 4,8 6,6 7,4 8,1 V -4 L 7,-7 6,-9 4,-11 2,-12 h -4"
           style="fill:none;stroke:#000000"
           transform="translate(56)"
           id="path53583"
           inkscape:connector-curvature="0" />
        <path
           d="M 0,-12 V 9 M -7,-12 H 7"
           style="fill:none;stroke:#000000"
           transform="translate(75)"
           id="path53585"
           inkscape:connector-curvature="0" />
      </g>
      <g
         id="g53951"
         transform="matrix(0.10909091,0,0,0.10909091,-65.839772,34.080673)"
         inkscape:label="Hershey Text">
        <path
           id="path53939"
           transform="translate(10)"
           style="fill:none;stroke:#000000"
           d="m 7,-9 -2,-2 -3,-1 h -4 l -3,1 -2,2 v 2 l 1,2 1,1 2,1 6,2 2,1 1,1 1,2 V 6 L 5,8 2,9 H -2 L -5,8 -7,6"
           inkscape:connector-curvature="0" />
        <path
           id="path53941"
           transform="translate(28)"
           style="fill:none;stroke:#000000"
           d="M 0,-12 V 9 M -7,-12 H 7"
           inkscape:connector-curvature="0" />
        <path
           id="path53943"
           transform="translate(45)"
           style="fill:none;stroke:#000000"
           d="M 0,-12 -8,9 M 0,-12 8,9 M -5,2 H 5"
           inkscape:connector-curvature="0" />
        <path
           id="path53945"
           transform="translate(62)"
           style="fill:none;stroke:#000000"
           d="M 0,-12 V 9 M -7,-12 H 7"
           inkscape:connector-curvature="0" />
        <path
           id="path53947"
           transform="translate(74)"
           style="fill:none;stroke:#000000"
           d="M 0,-12 V 9"
           inkscape:connector-curvature="0" />
        <path
           id="path53949"
           transform="translate(88)"
           style="fill:none;stroke:#000000"
           d="M 8,-7 7,-9 5,-11 3,-12 h -4 l -2,1 -2,2 -1,2 -1,3 v 5 l 1,3 1,2 2,2 2,1 H 3 L 5,8 7,6 8,4"
           inkscape:connector-curvature="0" />
      </g>
      <path
         style="fill:none;stroke:#000000;stroke-width:0.1;stroke-linecap:butt;stroke-linejoin:miter;stroke-miterlimit:4;stroke-dasharray:none;stroke-opacity:1"
         d="m -67.468749,35.06249 1.322916,-2.381248"
         id="path54138"
         inkscape:connector-curvature="0"
         sodipodi:nodetypes="cc" />
    </g>
    <g
       inkscape:label="Hershey Text"
       transform="matrix(0.09509145,0,0,0.09509145,-69.648291,56.234627)"
       id="g17281-9-0-1-3-4">
      <path
         inkscape:connector-curvature="0"
         d="M -6,-12 V 9 m 0,0 H 6"
         style="fill:none;stroke:#000000"
         transform="translate(10)"
         id="path17277-1-6-1-3-0" />
      <path
         inkscape:connector-curvature="0"
         d="M -7,-12 V 9 M 7,-12 V 9 M -7,-2 H 7"
         style="fill:none;stroke:#000000"
         transform="translate(28)"
         id="path17279-27-1-0-8-0" />
    </g>
    <g
       id="g17900-6-5-8-0-4"
       transform="matrix(0.11025137,0,0,0.11025137,-53.497191,56.293907)"
       inkscape:label="Hershey Text">
      <path
         id="path17896-0-9-5-56-6"
         transform="translate(11)"
         style="fill:none;stroke:#000000"
         d="M -7,-12 V 9 m 0,-21 h 9 l 3,1 1,1 1,2 v 2 l -1,2 -1,1 -3,1 h -9 m 7,0 7,11"
         inkscape:connector-curvature="0" />
      <path
         id="path17898-6-4-0-6-2"
         transform="translate(32)"
         style="fill:none;stroke:#000000"
         d="M -7,-12 V 9 M 7,-12 V 9 M -7,-2 H 7"
         inkscape:connector-curvature="0" />
    </g>
    <g
       id="g54380"
       transform="matrix(0.10909091,0,0,0.10909091,-38.353218,56.520268)"
       inkscape:label="Hershey Text">
      <path
         id="path54370"
         transform="translate(10)"
         style="fill:none;stroke:#000000"
         d="M -6,-12 V 9 m 0,0 H 6"
         inkscape:connector-curvature="0" />
      <path
         id="path54372"
         transform="translate(21)"
         style="fill:none;stroke:#000000"
         d="M 0,-12 V 9"
         inkscape:connector-curvature="0" />
      <path
         id="path54374"
         transform="translate(35)"
         style="fill:none;stroke:#000000"
         d="M 8,-7 7,-9 5,-11 3,-12 h -4 l -2,1 -2,2 -1,2 -1,3 v 5 l 1,3 1,2 2,2 2,1 H 3 L 5,8 7,6 8,4 V 1 M 3,1 h 5"
         inkscape:connector-curvature="0" />
      <path
         id="path54376"
         transform="translate(57)"
         style="fill:none;stroke:#000000"
         d="M -7,-12 V 9 M 7,-12 V 9 M -7,-2 H 7"
         inkscape:connector-curvature="0" />
      <path
         id="path54378"
         transform="translate(76)"
         style="fill:none;stroke:#000000"
         d="M 0,-12 V 9 M -7,-12 H 7"
         inkscape:connector-curvature="0" />
    </g>
  </g>
</svg>
