<?xml version="1.0" encoding="UTF-8" standalone="no"?>
<!-- Created with Inkscape (http://www.inkscape.org/) -->

<svg
   xmlns:dc="http://purl.org/dc/elements/1.1/"
   xmlns:cc="http://creativecommons.org/ns#"
   xmlns:rdf="http://www.w3.org/1999/02/22-rdf-syntax-ns#"
   xmlns:svg="http://www.w3.org/2000/svg"
   xmlns="http://www.w3.org/2000/svg"
   xmlns:sodipodi="http://sodipodi.sourceforge.net/DTD/sodipodi-0.dtd"
   xmlns:inkscape="http://www.inkscape.org/namespaces/inkscape"
   width="210mm"
   height="297mm"
   viewBox="0 0 210 297"
   version="1.1"
   id="svg47359"
   inkscape:version="0.92.3 (2405546, 2018-03-11)"
   sodipodi:docname="panelGears.svg">
  <sodipodi:namedview
     id="base"
     pagecolor="#ffffff"
     bordercolor="#666666"
     borderopacity="1.0"
     inkscape:pageopacity="0.0"
     inkscape:pageshadow="2"
     inkscape:zoom="1.4"
     inkscape:cx="587.33575"
     inkscape:cy="790.20757"
     inkscape:document-units="mm"
     inkscape:current-layer="layer1"
     showgrid="true"
     inkscape:window-width="1920"
     inkscape:window-height="1015"
     inkscape:window-x="1680"
     inkscape:window-y="0"
     inkscape:window-maximized="1">
    <inkscape:grid
       id="grid47944"
       type="xygrid" />
  </sodipodi:namedview>
  <defs
     id="defs47353" />
  <metadata
     id="metadata47356">
    <rdf:RDF>
      <cc:Work
         rdf:about="">
        <dc:format>image/svg+xml</dc:format>
        <dc:type
           rdf:resource="http://purl.org/dc/dcmitype/StillImage" />
        <dc:title />
      </cc:Work>
    </rdf:RDF>
  </metadata>
  <g
     id="layer1"
     inkscape:groupmode="layer"
     inkscape:label="Calque 1">
    <rect
       y="38.840191"
       x="121.83807"
       height="106.59343"
       width="51.145294"
       id="rect8740"
       style="display:inline;opacity:1;fill:none;fill-opacity:1;stroke:#000000;stroke-width:0.29999998;stroke-miterlimit:4;stroke-dasharray:none;stroke-dashoffset:0;stroke-opacity:0.92574259" />
    <circle
       style="display:inline;fill:none;stroke:#000000;stroke-width:0.15409854;stroke-miterlimit:4;stroke-dasharray:none;stroke-opacity:1"
       id="circle12525"
       cx="137.12436"
       cy="77.040939"
       r="2.4229507" />
    <circle
       style="display:inline;fill:none;stroke:#000000;stroke-width:0.15409854;stroke-miterlimit:4;stroke-dasharray:none;stroke-opacity:1"
       id="circle12527"
       cx="157.69707"
       cy="77.040939"
       r="2.4229507" />
    <circle
       style="display:inline;fill:none;stroke:#000000;stroke-width:0.15409854;stroke-miterlimit:4;stroke-dasharray:none;stroke-opacity:1"
       id="circle12529"
       cx="147.66238"
       cy="65.509293"
       r="2.4229507" />
    <circle
       style="display:inline;fill:none;stroke:#000000;stroke-width:0.15409854;stroke-miterlimit:4;stroke-dasharray:none;stroke-opacity:1"
       id="circle12531"
       cx="147.83749"
       cy="50.895626"
       r="2.4229507" />
    <g
       inkscape:label="Hershey Text"
       transform="matrix(0.09509145,0,0,0.09509145,135.14376,72.306679)"
       id="g17281-9-0">
      <path
         inkscape:connector-curvature="0"
         d="M -6,-12 V 9 m 0,0 H 6"
         style="fill:none;stroke:#000000"
         transform="translate(10)"
         id="path17277-1-6" />
      <path
         inkscape:connector-curvature="0"
         d="M -7,-12 V 9 M 7,-12 V 9 M -7,-2 H 7"
         style="fill:none;stroke:#000000"
         transform="translate(28)"
         id="path17279-27-1" />
    </g>
    <g
       id="g17900-6-5"
       transform="matrix(0.11025137,0,0,0.11025137,155.42049,72.365957)"
       inkscape:label="Hershey Text">
      <path
         id="path17896-0-9"
         transform="translate(11)"
         style="fill:none;stroke:#000000"
         d="M -7,-12 V 9 m 0,-21 h 9 l 3,1 1,1 1,2 v 2 l -1,2 -1,1 -3,1 h -9 m 7,0 7,11"
         inkscape:connector-curvature="0" />
      <path
         id="path17898-6-4"
         transform="translate(32)"
         style="fill:none;stroke:#000000"
         d="M -7,-12 V 9 M 7,-12 V 9 M -7,-2 H 7"
         inkscape:connector-curvature="0" />
    </g>
    <g
       id="g48047"
       transform="matrix(0.10909091,0,0,0.10909091,145.50785,60.770252)"
       inkscape:label="Hershey Text">
      <path
         id="path48043"
         transform="translate(11)"
         style="fill:none;stroke:#000000"
         d="M -7,-12 V 9 M -7,-12 7,9 M 7,-12 V 9"
         inkscape:connector-curvature="0" />
      <path
         id="path48045"
         transform="translate(33)"
         style="fill:none;stroke:#000000"
         d="m -2,-12 -2,1 -2,2 -1,2 -1,3 v 5 l 1,3 1,2 2,2 2,1 H 2 L 4,8 6,6 7,4 8,1 V -4 L 7,-7 6,-9 4,-11 2,-12 h -4"
         inkscape:connector-curvature="0" />
    </g>
    <g
       id="g48430"
       transform="translate(0,5.2916667)">
      <g
         id="g48117"
         transform="matrix(0.10909091,0,0,0.10909091,155.88996,101.28486)"
         inkscape:label="Hershey Text">
        <path
           inkscape:connector-curvature="0"
           id="path48103"
           transform="translate(10)"
           style="fill:none;stroke:#000000"
           d="M -6,-12 V 9 m 0,0 H 6" />
        <path
           inkscape:connector-curvature="0"
           id="path48105"
           transform="translate(26)"
           style="fill:none;stroke:#000000"
           d="M 0,-12 -8,9 M 0,-12 8,9 M -5,2 H 5" />
        <path
           inkscape:connector-curvature="0"
           id="path48107"
           transform="translate(46)"
           style="fill:none;stroke:#000000"
           d="M -7,-12 V 9 M -7,-12 7,9 M 7,-12 V 9" />
        <path
           inkscape:connector-curvature="0"
           id="path48109"
           transform="translate(68)"
           style="fill:none;stroke:#000000"
           d="M -7,-12 V 9 m 0,-21 h 7 l 3,1 2,2 1,2 1,3 V 1 L 6,4 5,6 3,8 0,9 h -7" />
        <path
           inkscape:connector-curvature="0"
           id="path48111"
           transform="translate(82)"
           style="fill:none;stroke:#000000"
           d="M 0,-12 V 9" />
        <path
           inkscape:connector-curvature="0"
           id="path48113"
           transform="translate(97)"
           style="fill:none;stroke:#000000"
           d="M -7,-12 V 9 M -7,-12 7,9 M 7,-12 V 9" />
        <path
           inkscape:connector-curvature="0"
           id="path48115"
           transform="translate(118)"
           style="fill:none;stroke:#000000"
           d="M 8,-7 7,-9 5,-11 3,-12 h -4 l -2,1 -2,2 -1,2 -1,3 v 5 l 1,3 1,2 2,2 2,1 H 3 L 5,8 7,6 8,4 V 1 M 3,1 h 5" />
      </g>
      <g
         inkscape:label="Hershey Text"
         transform="matrix(0.10909091,0,0,0.10909091,159.03667,104.27564)"
         id="g48195">
        <path
           inkscape:connector-curvature="0"
           d="M 8,-7 7,-9 5,-11 3,-12 h -4 l -2,1 -2,2 -1,2 -1,3 v 5 l 1,3 1,2 2,2 2,1 H 3 L 5,8 7,6 8,4 V 1 M 3,1 h 5"
           style="fill:none;stroke:#000000"
           transform="translate(10)"
           id="path48187" />
        <path
           inkscape:connector-curvature="0"
           d="M -6,-12 V 9 m 0,-21 H 7 M -6,-2 H 2 M -6,9 H 7"
           style="fill:none;stroke:#000000"
           transform="translate(31)"
           id="path48189" />
        <path
           inkscape:connector-curvature="0"
           d="M 0,-12 -8,9 M 0,-12 8,9 M -5,2 H 5"
           style="fill:none;stroke:#000000"
           transform="translate(49)"
           id="path48191" />
        <path
           inkscape:connector-curvature="0"
           d="M -7,-12 V 9 m 0,-21 h 9 l 3,1 1,1 1,2 v 2 l -1,2 -1,1 -3,1 h -9 m 7,0 7,11"
           style="fill:none;stroke:#000000"
           transform="translate(69)"
           id="path48193" />
      </g>
    </g>
    <g
       inkscape:label="Hershey Text"
       transform="matrix(0.10909091,0,0,0.10909091,155.92746,93.677077)"
       id="g48279">
      <path
         d="M -7,-12 V 3 l 1,3 2,2 3,1 H 1 L 4,8 6,6 7,3 v -15"
         style="fill:none;stroke:#000000"
         transform="translate(11)"
         id="path48275"
         inkscape:connector-curvature="0" />
      <path
         d="M -7,-12 V 9 m 0,-21 h 9 l 3,1 1,1 1,2 v 3 l -1,2 -1,1 -3,1 h -9"
         style="fill:none;stroke:#000000"
         transform="translate(33)"
         id="path48277"
         inkscape:connector-curvature="0" />
    </g>
    <g
       id="g48369"
       transform="matrix(0.10909091,0,0,0.10909091,156.02273,122.45153)"
       inkscape:label="Hershey Text">
      <path
         id="path48365"
         transform="translate(11)"
         style="fill:none;stroke:#000000"
         d="M -7,-12 V 9 m 0,-21 h 7 l 3,1 2,2 1,2 1,3 V 1 L 6,4 5,6 3,8 0,9 h -7"
         inkscape:connector-curvature="0" />
      <path
         id="path48367"
         transform="translate(32)"
         style="fill:none;stroke:#000000"
         d="M -7,-12 V 9 M -7,-12 7,9 M 7,-12 V 9"
         inkscape:connector-curvature="0" />
    </g>
    <rect
       y="92.558281"
       x="131.74425"
       height="30.700001"
       width="21.699999"
       id="rect12523"
       style="display:inline;fill:none;stroke:#000000;stroke-width:0.29999998;stroke-miterlimit:4;stroke-dasharray:none;stroke-opacity:1" />
  </g>
</svg>
